<svg width="113" height="112" viewBox="0 0 113 112" fill="none" xmlns="http://www.w3.org/2000/svg">
<path opacity="0.41" d="M108.087 60.079C108.087 70.4188 102.962 79.8178 94.5979 86.8066C91.2232 89.5975 87.496 91.9322 83.5122 93.7506C82.7655 94.0926 82.0114 94.4204 81.2498 94.734C78.0785 96.0253 74.799 97.0328 71.4498 97.7446C62.8785 99.563 54.0233 99.5843 45.4434 97.8073C45.3381 97.7894 45.2351 97.7692 45.1343 97.7446C41.9034 97.0556 38.7366 96.0942 35.668 94.8706C34.8997 94.5638 34.1448 94.239 33.4034 93.903C29.2986 92.0617 25.4612 89.6747 21.9951 86.8066C13.6219 79.8178 8.49683 70.4188 8.49683 60.079C8.49683 44.9052 19.54 31.7497 35.668 25.2873C42.8704 22.4439 50.5488 20.9994 58.292 21.0313C66.58 21.0313 74.3774 22.615 81.2498 25.4217C97.1963 31.9289 108.087 45.0038 108.087 60.079Z" fill="#E5E2F0"/>
<path d="M102.313 54.3355L94.598 86.8155C91.2232 89.6063 87.496 91.941 83.5122 93.7595C82.7655 94.1015 82.0114 94.4292 81.2498 94.7428C78.0786 96.0341 74.799 97.0416 71.4498 97.7534C62.8785 99.5718 54.0233 99.5932 45.4434 97.8161C45.3381 97.7982 45.2351 97.778 45.1343 97.7534L47.6162 87.3172L48.3823 84.0849L49.0744 81.1729L49.8428 77.9384L51.534 70.8264L52.3 67.5918L52.9922 64.6798L53.7628 61.4475L55.221 55.3032L55.9893 52.0686L57.956 43.794C58.1975 42.7723 58.7844 41.8652 59.6174 41.2261C60.4503 40.5869 61.4784 40.255 62.5279 40.2862C62.8404 40.2935 63.1513 40.3341 63.4552 40.4072L81.2498 44.6318L83.1896 45.0955L83.5122 45.1716L98.9234 48.8318C99.5075 48.9703 100.059 49.2226 100.545 49.5742C101.032 49.9258 101.444 50.3699 101.759 50.8811C102.074 51.3922 102.285 51.9604 102.38 52.5532C102.475 53.1459 102.452 53.7516 102.313 54.3355Z" fill="#D0CBE1"/>
<g style="mix-blend-mode:multiply" opacity="0.04">
<g style="mix-blend-mode:multiply" opacity="0.04">
<path d="M83.5122 45.0958V93.7553C82.7655 94.0973 82.0114 94.4251 81.2498 94.7387C78.0785 96.03 74.799 97.0374 71.4498 97.7492C62.8785 99.5677 54.0233 99.589 45.4434 97.812L47.9387 87.3131L48.7048 84.0807L49.397 81.1688L50.1675 77.9342L51.8565 70.8222L52.6248 67.5876L53.3147 64.6756L54.0853 61.4433L55.5435 55.299L56.3141 52.0644L58.2786 43.7899C58.3246 43.596 58.383 43.4052 58.4533 43.2187C58.7727 42.3856 59.3284 41.6638 60.0522 41.1421C60.776 40.6205 61.6365 40.3215 62.5278 40.282C62.9488 40.2639 63.3703 40.3046 63.78 40.403L81.252 44.5537L83.5122 45.0958Z" fill="#023088"/>
</g>
</g>
<path d="M71.4498 97.7493C62.8786 99.5677 54.0233 99.5891 45.4434 97.812C45.3381 97.7941 45.2351 97.7739 45.1343 97.7493C41.9033 97.0589 38.7365 96.096 35.6681 94.8709C34.8997 94.564 34.1449 94.2392 33.4034 93.9032C29.2986 92.0619 25.4612 89.675 21.9951 86.8069L14.2805 54.3269C14.0017 53.1501 14.201 51.9108 14.8346 50.8807C15.4683 49.8507 16.4846 49.114 17.6607 48.8322L33.3945 45.0914L35.6591 44.5538L53.1311 40.4031C54.1415 40.1645 55.203 40.277 56.141 40.722C57.079 41.167 57.8376 41.9179 58.2921 42.8514C58.3503 42.9701 58.4063 43.0978 58.4533 43.2232C58.5236 43.4097 58.582 43.6005 58.6281 43.7944L60.5948 52.069L61.3631 55.3035L64.302 67.6751L64.9359 70.3474L71.4498 97.7493Z" fill="#D0CBE1"/>
<g style="mix-blend-mode:multiply" opacity="0.04">
<g style="mix-blend-mode:multiply" opacity="0.04">
<path d="M71.4497 97.7493C62.8785 99.5677 54.0233 99.589 45.4433 97.812C45.338 97.7941 45.235 97.7739 45.1342 97.7493C41.9032 97.0588 38.7364 96.0959 35.668 94.8709C34.8996 94.564 34.1448 94.2392 33.4033 93.9032V45.0958L35.668 44.5582L53.14 40.4075C54.1486 40.1709 55.2076 40.2838 56.1436 40.7278C57.0797 41.1718 57.8371 41.9205 58.292 42.8513C58.3502 42.9701 58.4062 43.0977 58.4532 43.2232C58.5235 43.4097 58.5819 43.6005 58.628 43.7944L60.5947 52.0689L61.363 55.3035L64.3019 67.675L64.9358 70.3473L71.4497 97.7493Z" fill="#023088"/>
</g>
</g>
<path d="M81.2497 42.4119V94.7383C78.0785 96.0296 74.799 97.0371 71.4497 97.7488C62.8785 99.5673 54.0233 99.5886 45.4433 97.8116C45.338 97.7936 45.235 97.7735 45.1342 97.7488C41.9032 97.0584 38.7364 96.0955 35.668 94.8704V42.4119C35.6674 41.8118 35.7851 41.2175 36.0144 40.663C36.2437 40.1085 36.5801 39.6046 37.0043 39.1802C37.4285 38.7558 37.9322 38.4191 38.4866 38.1896C39.041 37.96 39.6353 37.842 40.2353 37.8423H76.6801C77.2804 37.8417 77.8749 37.9595 78.4295 38.1889C78.9842 38.4184 79.4882 38.7549 79.9126 39.1794C80.3371 39.6038 80.6737 40.1078 80.9031 40.6625C81.1325 41.2172 81.2503 41.8116 81.2497 42.4119Z" fill="white"/>
<path d="M78.9156 17.4717H37.993C36.7039 17.4717 35.6589 18.5167 35.6589 19.8058V30.6586C35.6589 31.9476 36.7039 32.9926 37.993 32.9926H78.9156C80.2047 32.9926 81.2497 31.9476 81.2497 30.6586V19.8058C81.2497 18.5167 80.2047 17.4717 78.9156 17.4717Z" fill="#D0CBE1"/>
<path d="M54.9073 45.9268H42.921C42.3025 45.9268 41.801 46.4282 41.801 47.0468V48.0391C41.801 48.6576 42.3025 49.1591 42.921 49.1591H54.9073C55.5258 49.1591 56.0273 48.6576 56.0273 48.0391V47.0468C56.0273 46.4282 55.5258 45.9268 54.9073 45.9268Z" fill="#9B93B8"/>
<path d="M53.9375 25.231H41.9513C41.3327 25.231 40.8313 25.7324 40.8313 26.351V27.3433C40.8313 27.9618 41.3327 28.4633 41.9513 28.4633H53.9375C54.5561 28.4633 55.0575 27.9618 55.0575 27.3433V26.351C55.0575 25.7324 54.5561 25.231 53.9375 25.231Z" fill="#F9F8FC"/>
<path d="M64.2864 52.0688H42.9213C42.3027 52.0688 41.8013 52.5703 41.8013 53.1888V54.1812C41.8013 54.7997 42.3027 55.3012 42.9213 55.3012H64.2864C64.9049 55.3012 65.4064 54.7997 65.4064 54.1812V53.1888C65.4064 52.5703 64.9049 52.0688 64.2864 52.0688Z" fill="#E5E2F0"/>
<path d="M54.9075 61.4478H42.9213C42.3027 61.4478 41.8013 61.9492 41.8013 62.5678V63.5601C41.8013 64.1786 42.3027 64.6801 42.9213 64.6801H54.9075C55.5261 64.6801 56.0275 64.1786 56.0275 63.5601V62.5678C56.0275 61.9492 55.5261 61.4478 54.9075 61.4478Z" fill="#9B93B8"/>
<path d="M64.2864 67.5894H42.9213C42.3027 67.5894 41.8013 68.0908 41.8013 68.7094V69.7017C41.8013 70.3202 42.3027 70.8217 42.9213 70.8217H64.2864C64.9049 70.8217 65.4064 70.3202 65.4064 69.7017V68.7094C65.4064 68.0908 64.9049 67.5894 64.2864 67.5894Z" fill="#E5E2F0"/>
<path d="M54.9075 77.936H42.9213C42.3027 77.936 41.8013 78.4375 41.8013 79.056V80.0484C41.8013 80.6669 42.3027 81.1684 42.9213 81.1684H54.9075C55.5261 81.1684 56.0275 80.6669 56.0275 80.0484V79.056C56.0275 78.4375 55.5261 77.936 54.9075 77.936Z" fill="#9B93B8"/>
<path d="M64.2864 84.0806H42.9213C42.3027 84.0806 41.8013 84.582 41.8013 85.2006V86.1929C41.8013 86.8115 42.3027 87.3129 42.9213 87.3129H64.2864C64.9049 87.3129 65.4064 86.8115 65.4064 86.1929V85.2006C65.4064 84.582 64.9049 84.0806 64.2864 84.0806Z" fill="#E5E2F0"/>
</svg>
