<svg width="73" height="72" viewBox="0 0 73 72" fill="none" xmlns="http://www.w3.org/2000/svg">
<g clip-path="url(#clip0_380_19515)">
<g clip-path="url(#clip1_380_19515)">
<path d="M68.0255 72H4.98219C2.50235 72 0.5 69.9902 0.5 67.5183V4.48171C0.5 2.00214 2.51006 0 4.98219 0H68.0178C70.4976 0 72.5 2.00984 72.5 4.48171V67.5106C72.5077 69.9902 70.4976 72 68.0255 72Z" fill="black"/>
<mask id="mask0_380_19515" style="mask-type:luminance" maskUnits="userSpaceOnUse" x="0" y="0" width="73" height="72">
<path d="M68.0255 72H4.98219C2.50235 72 0.5 69.9902 0.5 67.5183V4.48171C0.5 2.00214 2.51006 0 4.98219 0H68.0178C70.4976 0 72.5 2.00984 72.5 4.48171V67.5106C72.5077 69.9902 70.4976 72 68.0255 72Z" fill="white"/>
</mask>
<g mask="url(#mask0_380_19515)">
<path d="M-99.2478 49.9226C-103.907 45.0097 -107.896 39.3575 -111.015 33.0661C-102.082 21.6847 -97.6459 11.5123 -98.5315 3.67319C-99.0629 -1.07034 -102.39 -8.55526 -116.352 -14.4616C-114.797 -20.8992 -112.309 -27.0828 -109.021 -32.812C-86.8717 -23.6098 -80.1561 -9.82585 -78.8854 1.44773C-77.0525 17.7344 -86.1786 34.6216 -99.2478 49.9226ZM-71.0146 -17.0105C-58.0917 -11.7818 -55.2268 -5.02842 -55.0266 -0.808525C-55.0805 7.29244 -60.0017 17.7806 -68.6272 29.6009C-65.9394 36.8163 -61.6344 43.4773 -56.0047 49.2835C-43.3744 34.6601 -34.4948 18.5044 -35.9811 2.88003C-38.4225 -8.87868 -44.8839 -22.8552 -65.6005 -32.1728C-68.5656 -27.4986 -70.3831 -22.4008 -71.0146 -17.0105ZM-27.6175 -19.5593C-15.742 -15.0006 -13.3314 -8.97879 -13.4624 -5.28254C-14.4558 3.08025 -19.8622 13.8841 -28.172 26.1511C-25.9078 34.2905 -21.3023 41.9526 -14.6946 48.652C-2.51103 34.7063 6.12218 19.2745 4.99008 4.31233C1.36275 -7.93152 -4.83685 -22.1005 -24.1287 -31.5414C-26.7626 -27.9144 -27.9178 -23.9024 -27.6175 -19.5593ZM16.2264 -22.1082C27.0622 -18.2271 29.0029 -12.9292 28.5485 -9.75655C26.6155 -1.13195 20.7162 9.98763 12.7222 22.6858C14.5552 31.7493 19.4763 40.4124 27.0468 48.0129C38.799 34.7449 47.1858 20.0445 46.408 5.74463C44.1592 -7.76211 37.5283 -21.9003 17.7974 -30.9022C16.9426 -28.1839 16.3419 -25.2731 16.2264 -22.1082ZM58.707 -26.6669C58.707 -26.6669 60.9481 -25.0344 63.4742 -22.7782C68.7958 -18.0269 70.3592 -10.3418 67.3249 -3.88104C64.1596 2.84153 59.3925 10.1801 54.1016 19.236C55.5033 29.2236 60.7325 38.8877 69.281 47.3814C76.7513 39.0648 82.8354 30.1399 85.9775 21.1072C88.4343 14.0612 89.2352 5.90635 85.8774 -2.01751C81.1719 -13.1217 73.509 -22.4239 60.1934 -30.2708C59.2615 -30.0629 58.2064 -27.129 58.707 -26.6669ZM-120.85 53.2415C-120.735 52.9566 -121.42 51.2471 -123.191 50.1767C-134.959 59.7254 -144.362 73.5709 -147.928 90.7508C-149.545 107.215 -142.129 123.879 -126.78 138.656C-118.57 130.817 -112.171 121.938 -110.13 112.913C-120.219 101.093 -126.357 91.621 -130.477 81.9722C-134.967 71.461 -130.931 59.2402 -121.112 53.4032C-121.02 53.3416 -120.85 53.2415 -120.85 53.2415ZM-77.1064 53.2492C-77.091 52.5485 -78.8238 49.476 -81.2805 48.2593C-89.752 54.6661 -97.9693 63.5371 -103.214 76.5742C-108.605 89.9808 -108.289 105.043 -102.005 118.057C-98.2466 125.834 -92.5861 133.412 -85.1312 140.566C-77.3682 133.404 -71.2148 125.257 -68.8197 116.886C-80.3872 104.003 -85.3083 91.7442 -89.159 81.926C-92.5322 73.3245 -90.1063 63.4832 -83.0287 57.5538C-81.2728 56.0907 -77.1064 53.2492 -77.1064 53.2492ZM-32.5232 53.2569C-33.6476 49.8764 -35.8502 47.8127 -38.5303 46.3419C-47.795 54.0347 -56.4667 63.8683 -61.696 76.4047C-66.4323 87.763 -67.0715 100.477 -63.113 112.128C-59.5473 122.639 -52.6469 132.911 -42.6505 142.491C-35.3265 136.007 -29.4273 128.584 -26.6779 120.883C-40.4479 106.237 -45.0995 92.5528 -48.3264 82.1724C-50.0746 76.5434 -49.1427 70.4137 -45.7387 65.6086C-42.7121 61.3425 -38.2684 57.1842 -32.5232 53.2569ZM12.9302 53.2646C12.291 49.7301 9.17192 47.0118 5.09019 44.4244C-7.17805 55.9059 -18.4374 70.4984 -22.9812 88.0402C-25.8847 107.276 -17.5441 126.943 0.723526 144.408C7.60085 138.61 13.2613 131.91 16.365 124.864C5.00549 113.267 -0.35466 102.371 -3.30428 93.1765C-7.15495 81.1637 -3.77406 68.0266 5.42905 59.402C7.64705 57.3151 10.1577 55.2668 12.9302 53.2646ZM62.1264 53.28C59.4002 48.3979 55.357 44.2165 50.6206 40.5819C36.4732 52.587 24.2358 67.8186 20.3158 86.2306C16.5498 107.315 25.5142 128.984 45.7225 148.243C51.7219 143.8 56.8741 138.556 60.6863 132.834C40.6012 113.752 38.0058 96.9806 38.722 85.8456C40.709 74.7645 48.8647 63.5911 62.1264 53.28ZM85.6618 89.0336C87.9722 76.9053 96.7979 64.646 110.984 53.2877C107.218 47.7356 102.713 42.8227 97.6451 38.6644C82.5581 50.9314 69.8278 66.4788 66.2236 85.3297C62.0263 107.338 71.3065 130.008 92.4852 150.16C98.0379 146.395 102.951 141.882 107.11 136.815C85.8466 117.248 83.5131 100.292 85.6618 89.0336Z" fill="#333333"/>
</g>
</g>
<rect x="1" y="0.5" width="71" height="71" rx="35.5" stroke="black"/>
<path d="M30.4261 29.5412H33.5624V41.8139C33.5568 42.9389 33.3181 43.9077 32.8465 44.7202C32.3749 45.527 31.7159 46.1491 30.8693 46.5866C30.0284 47.0185 29.0482 47.2344 27.9289 47.2344C26.9062 47.2344 25.9857 47.0525 25.1676 46.6889C24.3551 46.3196 23.7102 45.7741 23.2329 45.0525C22.7556 44.331 22.517 43.4332 22.517 42.3594H25.6619C25.6676 42.831 25.7698 43.2372 25.9687 43.5781C26.1732 43.919 26.4545 44.1804 26.8124 44.3622C27.1704 44.544 27.5823 44.6349 28.0482 44.6349C28.5539 44.6349 28.9829 44.5298 29.3352 44.3196C29.6874 44.1037 29.9545 43.7855 30.1363 43.365C30.3238 42.9446 30.4204 42.4275 30.4261 41.8139V29.5412ZM42.4276 46.9957H36.5128V29.5412H42.5469C44.2799 29.5412 45.7685 29.8906 47.0128 30.5895C48.2628 31.2827 49.2231 32.2798 49.8935 33.581C50.564 34.8821 50.8992 36.4389 50.8992 38.2514C50.8992 40.0696 50.5611 41.6321 49.885 42.9389C49.2145 44.2457 48.2458 45.2486 46.9788 45.9474C45.7174 46.6463 44.2003 46.9957 42.4276 46.9957ZM39.6748 44.2599H42.2742C43.4901 44.2599 44.5043 44.0383 45.3168 43.5952C46.1293 43.1463 46.7401 42.4787 47.1492 41.5923C47.5583 40.7003 47.7628 39.5866 47.7628 38.2514C47.7628 36.9162 47.5583 35.8082 47.1492 34.9275C46.7401 34.0412 46.135 33.3793 45.3339 32.9418C44.5384 32.4986 43.5498 32.277 42.368 32.277H39.6748V44.2599Z" fill="white"/>
</g>
<defs>
<clipPath id="clip0_380_19515">
<rect width="72" height="72" fill="white" transform="translate(0.5)"/>
</clipPath>
<clipPath id="clip1_380_19515">
<rect x="0.5" width="72" height="72" rx="36" fill="white"/>
</clipPath>
</defs>
</svg>
