<svg width="40" height="40" viewBox="0 0 40 40" fill="none" xmlns="http://www.w3.org/2000/svg">
<g clip-path="url(#clip0_382_1001)">
<path d="M20 40C31.0457 40 40 31.0457 40 20C40 8.9543 31.0457 0 20 0C8.9543 0 0 8.9543 0 20C0 31.0457 8.9543 40 20 40Z" fill="#F0F0F0"/>
<path d="M40.0012 20.0017C40.0012 12.0725 35.3867 5.22127 28.6968 1.98627V38.0171C35.3867 34.7822 40.0012 27.931 40.0012 20.0017Z" fill="#D80027"/>
<path d="M0.000488281 20.0006C0.000488281 27.9299 4.61494 34.7811 11.3049 38.0161V1.98517C4.61494 5.22017 0.000488281 12.0714 0.000488281 20.0006Z" fill="#D80027"/>
<path d="M23.4792 22.6104L26.9574 20.8712L25.2183 20.0017V18.2625L21.7401 20.0017L23.4792 16.5234H21.7401L20.0009 13.9147L18.2618 16.5234H16.5226L18.2618 20.0017L14.7835 18.2625V20.0017L13.0444 20.8712L16.5226 22.6104L15.6531 24.3495H19.1314V26.9582H20.8705V24.3495H24.3487L23.4792 22.6104Z" fill="#D80027"/>
</g>
<defs>
<clipPath id="clip0_382_1001">
<rect width="40" height="40" fill="white"/>
</clipPath>
</defs>
</svg>
