<svg width="40" height="40" viewBox="0 0 40 40" fill="none" xmlns="http://www.w3.org/2000/svg">
<g clip-path="url(#clip0_380_19538)">
<rect width="40" height="39.9995" rx="19.9998" fill="white"/>
<path d="M25.2929 13.293C25.6834 12.9024 26.3164 12.9024 26.707 13.293C27.0975 13.6835 27.0975 14.3165 26.707 14.707L21.414 19.9999L26.707 25.2927L26.7753 25.3689C27.0957 25.7616 27.0731 26.3406 26.707 26.7067C26.3408 27.0729 25.7618 27.0954 25.3691 26.7751L25.2929 26.7067L19.9999 21.4139L14.707 26.7067C14.3164 27.0973 13.6834 27.0973 13.2929 26.7067C12.9024 26.3162 12.9024 25.6832 13.2929 25.2927L18.5859 19.9999L13.2929 14.707L13.2245 14.6308C12.9042 14.2381 12.9268 13.6591 13.2929 13.293C13.659 12.9269 14.238 12.9043 14.6308 13.2246L14.707 13.293L19.9999 18.5858L25.2929 13.293Z" fill="black"/>
</g>
<defs>
<clipPath id="clip0_380_19538">
<rect width="40" height="39.9995" rx="19.9998" fill="white"/>
</clipPath>
</defs>
</svg>
