<svg width="40" height="40" viewBox="0 0 40 40" fill="none" xmlns="http://www.w3.org/2000/svg">
<g clip-path="url(#clip0_382_767)">
<path d="M40 0H0V40H40V0Z" fill="#003399"/>
<path d="M20.0005 4.44427L19.3121 6.55773L20.3714 6.90109L20.0005 4.44427Z" fill="#FFCC00"/>
<path d="M20.0005 4.44427L20.6889 6.55773L19.6295 6.90109L20.0005 4.44427Z" fill="#FFCC00"/>
<path d="M22.1177 5.98126L19.8905 5.97994L19.8912 7.08973L22.1177 5.98126Z" fill="#FFCC00"/>
<path d="M22.1187 5.98065L20.3169 7.28618L19.6616 6.3866L22.1187 5.98065Z" fill="#FFCC00"/>
<path d="M21.3091 8.46466L20.6201 6.35083L19.5613 6.69381L21.3091 8.46466Z" fill="#FFCC00"/>
<path d="M21.3091 8.46436L19.5064 7.15775L20.1607 6.25926L21.3091 8.46436Z" fill="#FFCC00"/>
<path d="M17.8813 5.98126L20.1085 5.97994L20.1078 7.08973L17.8813 5.98126Z" fill="#FFCC00"/>
<path d="M17.8809 5.98065L19.6826 7.28618L20.3379 6.3866L17.8809 5.98065Z" fill="#FFCC00"/>
<path d="M18.6895 8.46472L19.3784 6.35089L20.4373 6.69388L18.6895 8.46472Z" fill="#FFCC00"/>
<path d="M18.6895 8.46442L20.4921 7.15782L19.8378 6.25932L18.6895 8.46442Z" fill="#FFCC00"/>
<path d="M20 31.1107L19.3116 33.2241L20.371 33.5675L20 31.1107Z" fill="#FFCC00"/>
<path d="M20 31.1107L20.6884 33.2241L19.629 33.5675L20 31.1107Z" fill="#FFCC00"/>
<path d="M22.1177 32.6479L19.8905 32.6466L19.8912 33.7564L22.1177 32.6479Z" fill="#FFCC00"/>
<path d="M22.1187 32.6472L20.3169 33.9527L19.6616 33.0532L22.1187 32.6472Z" fill="#FFCC00"/>
<path d="M21.3091 35.1313L20.6201 33.0175L19.5613 33.3604L21.3091 35.1313Z" fill="#FFCC00"/>
<path d="M21.3091 35.1309L19.5064 33.8243L20.1607 32.9258L21.3091 35.1309Z" fill="#FFCC00"/>
<path d="M17.8813 32.6479L20.1085 32.6466L20.1078 33.7564L17.8813 32.6479Z" fill="#FFCC00"/>
<path d="M17.8809 32.6472L19.6826 33.9527L20.3379 33.0532L17.8809 32.6472Z" fill="#FFCC00"/>
<path d="M18.6899 35.1312L19.3789 33.0174L20.4377 33.3604L18.6899 35.1312Z" fill="#FFCC00"/>
<path d="M18.6899 35.1309L20.4926 33.8243L19.8383 32.9258L18.6899 35.1309Z" fill="#FFCC00"/>
<path d="M6.6333 17.7778L5.94488 19.8912L7.00425 20.2346L6.6333 17.7778Z" fill="#FFCC00"/>
<path d="M6.6333 17.7778L7.32173 19.8912L6.26235 20.2346L6.6333 17.7778Z" fill="#FFCC00"/>
<path d="M8.75146 19.3148L6.52434 19.3134L6.525 20.4232L8.75146 19.3148Z" fill="#FFCC00"/>
<path d="M8.75195 19.3141L6.95023 20.6197L6.2949 19.7201L8.75195 19.3141Z" fill="#FFCC00"/>
<path d="M7.94336 21.7982L7.25441 19.6844L6.19556 20.0274L7.94336 21.7982Z" fill="#FFCC00"/>
<path d="M7.94336 21.7979L6.14067 20.4913L6.79503 19.5928L7.94336 21.7979Z" fill="#FFCC00"/>
<path d="M4.51465 19.3148L6.74178 19.3134L6.74111 20.4232L4.51465 19.3148Z" fill="#FFCC00"/>
<path d="M4.51367 19.3141L6.31539 20.6197L6.97073 19.7201L4.51367 19.3141Z" fill="#FFCC00"/>
<path d="M5.32178 21.7982L6.01072 19.6844L7.06958 20.0274L5.32178 21.7982Z" fill="#FFCC00"/>
<path d="M5.32178 21.7979L7.12447 20.4913L6.47011 19.5928L5.32178 21.7979Z" fill="#FFCC00"/>
<path d="M12.0063 10.2508L13.8091 8.94417L13.1547 8.0457L12.0063 10.2508Z" fill="#FFCC00"/>
<path d="M12.0063 10.2512L12.6953 8.13737L13.7542 8.48034L12.0063 10.2512Z" fill="#FFCC00"/>
<path d="M11.1973 7.76672L12.9993 9.07255L13.6543 8.17328L11.1973 7.76672Z" fill="#FFCC00"/>
<path d="M11.1978 7.76715L13.4252 7.76644L13.4248 8.87683L11.1978 7.76715Z" fill="#FFCC00"/>
<path d="M13.3169 6.23096L12.6279 8.3448L13.6868 8.68777L13.3169 6.23096Z" fill="#FFCC00"/>
<path d="M13.3169 6.23096L14.0048 8.34403L12.9448 8.68777L13.3169 6.23096Z" fill="#FFCC00"/>
<path d="M14.625 10.2509L12.823 8.94512L13.4781 8.04582L14.625 10.2509Z" fill="#FFCC00"/>
<path d="M14.6255 10.2505L13.9376 8.13744L12.8777 8.48114L14.6255 10.2505Z" fill="#FFCC00"/>
<path d="M15.4351 7.76593L13.6325 9.07241L12.978 8.1738L15.4351 7.76593Z" fill="#FFCC00"/>
<path d="M15.4351 7.76617L13.2076 7.76675L13.2073 8.87729L15.4351 7.76617Z" fill="#FFCC00"/>
<path d="M9.73438 15.1316L9.0454 13.0177L7.98657 13.3607L9.73438 15.1316Z" fill="#FFCC00"/>
<path d="M9.73438 15.1312L7.93166 13.8245L8.58601 12.9261L9.73438 15.1312Z" fill="#FFCC00"/>
<path d="M7.11572 15.1312L8.91769 13.8254L8.26261 12.9261L7.11572 15.1312Z" fill="#FFCC00"/>
<path d="M7.11523 15.1308L7.80316 13.0177L8.86304 13.3614L7.11523 15.1308Z" fill="#FFCC00"/>
<path d="M6.30518 12.6463L8.10776 13.9528L8.76223 13.0542L6.30518 12.6463Z" fill="#FFCC00"/>
<path d="M6.30518 12.6465L8.53268 12.6471L8.53297 13.7577L6.30518 12.6465Z" fill="#FFCC00"/>
<path d="M10.543 12.6472L8.74097 13.953L8.08592 13.0537L10.543 12.6472Z" fill="#FFCC00"/>
<path d="M10.5425 12.6476L8.31505 12.6469L8.31541 13.7573L10.5425 12.6476Z" fill="#FFCC00"/>
<path d="M8.42334 11.1111L9.11231 13.225L8.05348 13.568L8.42334 11.1111Z" fill="#FFCC00"/>
<path d="M8.42334 11.1111L7.73546 13.2242L8.79539 13.568L8.42334 11.1111Z" fill="#FFCC00"/>
<path d="M10.5415 25.9819L8.31465 25.98L8.31558 27.0893L10.5415 25.9819Z" fill="#FFCC00"/>
<path d="M10.543 25.981L8.7415 27.2862L8.08592 26.3864L10.543 25.981Z" fill="#FFCC00"/>
<path d="M9.7334 28.465L9.04357 26.3506L7.98559 26.6929L9.7334 28.465Z" fill="#FFCC00"/>
<path d="M9.73486 28.4641L7.93154 27.1568L8.58528 26.259L9.73486 28.4641Z" fill="#FFCC00"/>
<path d="M7.11572 28.4647L8.91743 27.1592L8.26208 26.2596L7.11572 28.4647Z" fill="#FFCC00"/>
<path d="M7.11523 28.4641L7.80279 26.3513L8.86304 26.6952L7.11523 28.4641Z" fill="#FFCC00"/>
<path d="M8.42285 24.4448L9.11247 26.5591L8.05428 26.9016L8.42285 24.4448Z" fill="#FFCC00"/>
<path d="M8.42285 24.4448L7.73562 26.5574L8.79619 26.9016L8.42285 24.4448Z" fill="#FFCC00"/>
<path d="M6.30518 25.9803L8.5326 25.981L8.53297 27.0914L6.30518 25.9803Z" fill="#FFCC00"/>
<path d="M6.30518 25.98L8.10783 27.2865L8.76223 26.388L6.30518 25.98Z" fill="#FFCC00"/>
<path d="M15.4336 30.8619L13.2067 30.8601L13.2077 31.9693L15.4336 30.8619Z" fill="#FFCC00"/>
<path d="M15.4351 30.8611L13.6336 32.1663L12.978 31.2665L15.4351 30.8611Z" fill="#FFCC00"/>
<path d="M14.6255 33.3457L13.9357 31.2313L12.8777 31.5736L14.6255 33.3457Z" fill="#FFCC00"/>
<path d="M14.627 33.3447L12.8236 32.0374L13.4774 31.1396L14.627 33.3447Z" fill="#FFCC00"/>
<path d="M12.0068 33.345L13.8085 32.0395L13.1532 31.1399L12.0068 33.345Z" fill="#FFCC00"/>
<path d="M12.0059 33.3444L12.6934 31.2316L13.7537 31.5755L12.0059 33.3444Z" fill="#FFCC00"/>
<path d="M13.3149 29.3248L14.0046 31.4391L12.9464 31.7816L13.3149 29.3248Z" fill="#FFCC00"/>
<path d="M13.3149 29.3248L12.6277 31.4374L13.6883 31.7816L13.3149 29.3248Z" fill="#FFCC00"/>
<path d="M11.1973 30.8603L13.4247 30.861L13.4251 31.9714L11.1973 30.8603Z" fill="#FFCC00"/>
<path d="M11.1973 30.8599L12.9999 32.1665L13.6543 31.2679L11.1973 30.8599Z" fill="#FFCC00"/>
<path d="M33.3667 17.7778L34.0551 19.8912L32.9957 20.2346L33.3667 17.7778Z" fill="#FFCC00"/>
<path d="M33.3667 17.7778L32.6783 19.8912L33.7377 20.2346L33.3667 17.7778Z" fill="#FFCC00"/>
<path d="M31.2485 19.3148L33.4757 19.3134L33.475 20.4232L31.2485 19.3148Z" fill="#FFCC00"/>
<path d="M31.248 19.3141L33.0498 20.6197L33.7051 19.7201L31.248 19.3141Z" fill="#FFCC00"/>
<path d="M32.0566 21.7982L32.7456 19.6844L33.8044 20.0274L32.0566 21.7982Z" fill="#FFCC00"/>
<path d="M32.0566 21.7979L33.8593 20.4913L33.205 19.5928L32.0566 21.7979Z" fill="#FFCC00"/>
<path d="M35.4854 19.3148L33.2582 19.3134L33.2589 20.4232L35.4854 19.3148Z" fill="#FFCC00"/>
<path d="M35.4863 19.3141L33.6846 20.6197L33.0293 19.7201L35.4863 19.3141Z" fill="#FFCC00"/>
<path d="M34.6782 21.7982L33.9893 19.6844L32.9304 20.0274L34.6782 21.7982Z" fill="#FFCC00"/>
<path d="M34.6782 21.7979L32.8755 20.4913L33.5299 19.5928L34.6782 21.7979Z" fill="#FFCC00"/>
<path d="M27.9937 10.2508L26.1909 8.94417L26.8453 8.0457L27.9937 10.2508Z" fill="#FFCC00"/>
<path d="M27.9937 10.2512L27.3047 8.13737L26.2458 8.48034L27.9937 10.2512Z" fill="#FFCC00"/>
<path d="M28.8027 7.76672L27.0007 9.07255L26.3457 8.17328L28.8027 7.76672Z" fill="#FFCC00"/>
<path d="M28.8022 7.76715L26.5748 7.76644L26.5752 8.87683L28.8022 7.76715Z" fill="#FFCC00"/>
<path d="M26.6831 6.23096L27.3721 8.3448L26.3132 8.68777L26.6831 6.23096Z" fill="#FFCC00"/>
<path d="M26.6831 6.23096L25.9952 8.34403L27.0552 8.68777L26.6831 6.23096Z" fill="#FFCC00"/>
<path d="M25.375 10.2509L27.177 8.94512L26.5219 8.04582L25.375 10.2509Z" fill="#FFCC00"/>
<path d="M25.3745 10.2505L26.0624 8.13744L27.1223 8.48114L25.3745 10.2505Z" fill="#FFCC00"/>
<path d="M24.5649 7.76593L26.3675 9.07241L27.022 8.1738L24.5649 7.76593Z" fill="#FFCC00"/>
<path d="M24.5649 7.76617L26.7924 7.76675L26.7927 8.87729L24.5649 7.76617Z" fill="#FFCC00"/>
<path d="M30.2656 15.1316L30.9546 13.0177L32.0134 13.3607L30.2656 15.1316Z" fill="#FFCC00"/>
<path d="M30.2656 15.1312L32.0683 13.8245L31.414 12.9261L30.2656 15.1312Z" fill="#FFCC00"/>
<path d="M32.8843 15.1312L31.0823 13.8254L31.7374 12.9261L32.8843 15.1312Z" fill="#FFCC00"/>
<path d="M32.8848 15.1308L32.1968 13.0177L31.137 13.3614L32.8848 15.1308Z" fill="#FFCC00"/>
<path d="M33.6948 12.6463L31.8922 13.9528L31.2378 13.0542L33.6948 12.6463Z" fill="#FFCC00"/>
<path d="M33.6948 12.6465L31.4673 12.6471L31.467 13.7577L33.6948 12.6465Z" fill="#FFCC00"/>
<path d="M29.457 12.6472L31.259 13.953L31.9141 13.0537L29.457 12.6472Z" fill="#FFCC00"/>
<path d="M29.4575 12.6476L31.685 12.6469L31.6846 13.7573L29.4575 12.6476Z" fill="#FFCC00"/>
<path d="M31.5767 11.1111L30.8877 13.225L31.9465 13.568L31.5767 11.1111Z" fill="#FFCC00"/>
<path d="M31.5767 11.1111L32.2645 13.2242L31.2046 13.568L31.5767 11.1111Z" fill="#FFCC00"/>
<path d="M29.4585 25.9819L31.6854 25.98L31.6844 27.0893L29.4585 25.9819Z" fill="#FFCC00"/>
<path d="M29.457 25.981L31.2585 27.2862L31.9141 26.3864L29.457 25.981Z" fill="#FFCC00"/>
<path d="M30.2666 28.465L30.9564 26.3506L32.0144 26.6929L30.2666 28.465Z" fill="#FFCC00"/>
<path d="M30.2651 28.4641L32.0685 27.1568L31.4147 26.259L30.2651 28.4641Z" fill="#FFCC00"/>
<path d="M32.8843 28.4647L31.0826 27.1592L31.7379 26.2596L32.8843 28.4647Z" fill="#FFCC00"/>
<path d="M32.8848 28.4641L32.1972 26.3513L31.137 26.6952L32.8848 28.4641Z" fill="#FFCC00"/>
<path d="M31.5771 24.4448L30.8875 26.5591L31.9457 26.9016L31.5771 24.4448Z" fill="#FFCC00"/>
<path d="M31.5771 24.4448L32.2644 26.5574L31.2038 26.9016L31.5771 24.4448Z" fill="#FFCC00"/>
<path d="M33.6948 25.9803L31.4674 25.981L31.467 27.0914L33.6948 25.9803Z" fill="#FFCC00"/>
<path d="M33.6948 25.98L31.8922 27.2865L31.2378 26.388L33.6948 25.98Z" fill="#FFCC00"/>
<path d="M24.5664 30.8619L26.7933 30.8601L26.7923 31.9693L24.5664 30.8619Z" fill="#FFCC00"/>
<path d="M24.5649 30.8611L26.3664 32.1663L27.022 31.2665L24.5649 30.8611Z" fill="#FFCC00"/>
<path d="M25.3745 33.3457L26.0643 31.2313L27.1223 31.5736L25.3745 33.3457Z" fill="#FFCC00"/>
<path d="M25.373 33.3447L27.1764 32.0374L26.5226 31.1396L25.373 33.3447Z" fill="#FFCC00"/>
<path d="M27.9932 33.345L26.1915 32.0395L26.8468 31.1399L27.9932 33.345Z" fill="#FFCC00"/>
<path d="M27.9941 33.3444L27.3066 31.2316L26.2463 31.5755L27.9941 33.3444Z" fill="#FFCC00"/>
<path d="M26.6851 29.3248L25.9954 31.4391L27.0536 31.7816L26.6851 29.3248Z" fill="#FFCC00"/>
<path d="M26.6851 29.3248L27.3723 31.4374L26.3117 31.7816L26.6851 29.3248Z" fill="#FFCC00"/>
<path d="M28.8027 30.8603L26.5753 30.861L26.5749 31.9714L28.8027 30.8603Z" fill="#FFCC00"/>
<path d="M28.8027 30.8599L27.0001 32.1665L26.3457 31.2679L28.8027 30.8599Z" fill="#FFCC00"/>
</g>
<defs>
<clipPath id="clip0_382_767">
<rect width="40" height="40" rx="20" fill="white"/>
</clipPath>
</defs>
</svg>
