<svg width="16" height="16" viewBox="0 0 16 16" fill="none" xmlns="http://www.w3.org/2000/svg">
<g clip-path="url(#clip0_380_20277)">
<path d="M8 16C12.4183 16 16 12.4183 16 8C16 3.58172 12.4183 0 8 0C3.58172 0 0 3.58172 0 8C0 12.4183 3.58172 16 8 16Z" fill="#F0F0F0"/>
<path d="M1.65403 3.12851C1.02563 3.9461 0.551785 4.88845 0.275879 5.91217H4.43769L1.65403 3.12851Z" fill="#0052B4"/>
<path d="M15.7247 5.91252C15.4488 4.88883 14.975 3.94648 14.3466 3.12889L11.563 5.91252H15.7247Z" fill="#0052B4"/>
<path d="M0.275879 10.0867C0.551817 11.1104 1.02566 12.0527 1.65404 12.8703L4.4376 10.0867H0.275879Z" fill="#0052B4"/>
<path d="M12.8705 1.65318C12.0529 1.02478 11.1106 0.550932 10.0869 0.274994V4.43678L12.8705 1.65318Z" fill="#0052B4"/>
<path d="M3.12939 14.3453C3.94699 14.9737 4.88933 15.4475 5.91302 15.7235V11.5617L3.12939 14.3453Z" fill="#0052B4"/>
<path d="M5.91299 0.274994C4.8893 0.550931 3.94696 1.02477 3.12939 1.65315L5.91299 4.43674V0.274994Z" fill="#0052B4"/>
<path d="M10.0869 15.7235C11.1106 15.4475 12.0529 14.9737 12.8705 14.3453L10.0869 11.5617V15.7235Z" fill="#0052B4"/>
<path d="M11.563 10.0867L14.3466 12.8703C14.975 12.0528 15.4488 11.1104 15.7247 10.0867H11.563Z" fill="#0052B4"/>
<path d="M15.9323 6.95653H9.04353H9.0435V0.0677187C8.70191 0.02325 8.35366 0 8 0C7.64628 0 7.29809 0.02325 6.95653 0.0677187V6.95647V6.9565H0.0677187C0.02325 7.29809 0 7.64634 0 8C0 8.35372 0.02325 8.70191 0.0677187 9.04347H6.95647H6.9565V15.9323C7.29809 15.9767 7.64628 16 8 16C8.35366 16 8.70191 15.9768 9.04347 15.9323V9.04353V9.0435H15.9323C15.9767 8.70191 16 8.35372 16 8C16 7.64634 15.9767 7.29809 15.9323 6.95653Z" fill="#D80027"/>
<path d="M10.0869 10.0875L13.6568 13.6574C13.821 13.4933 13.9776 13.3217 14.127 13.1438L11.0707 10.0875H10.0869V10.0875Z" fill="#D80027"/>
<path d="M5.91317 10.0875H5.91311L2.34326 13.6573C2.50739 13.8215 2.67898 13.9781 2.85686 14.1276L5.91317 11.0712V10.0875Z" fill="#D80027"/>
<path d="M5.91268 5.91293V5.91287L2.34281 2.34296C2.17862 2.50709 2.022 2.67868 1.87256 2.85656L4.9289 5.9129H5.91268V5.91293Z" fill="#D80027"/>
<path d="M10.0869 5.91359L13.6568 2.34365C13.4927 2.17947 13.3211 2.02284 13.1432 1.87344L10.0869 4.92978V5.91359Z" fill="#D80027"/>
</g>
<defs>
<clipPath id="clip0_380_20277">
<rect width="16" height="16" fill="white"/>
</clipPath>
</defs>
</svg>
