<svg width="25" height="24" viewBox="0 0 25 24" fill="none" xmlns="http://www.w3.org/2000/svg">
<g clip-path="url(#clip0_380_16780)">
<path fill-rule="evenodd" clip-rule="evenodd" d="M1.4165 12.6283C1.4165 10.9251 1.4165 10.0735 1.63278 9.28998C1.83915 8.54229 2.18853 7.84172 2.66159 7.22704C3.15734 6.58286 3.83756 6.0705 5.198 5.04578L6.39071 4.1474C8.4613 2.58777 9.4966 1.80795 10.6343 1.50745C11.6386 1.2422 12.6945 1.2422 13.6987 1.50745C14.8365 1.80795 15.8718 2.58777 17.9424 4.14739L19.1351 5.04578C20.4955 6.0705 21.1757 6.58286 21.6715 7.22704C22.1446 7.84172 22.4939 8.54229 22.7003 9.28998C22.9166 10.0735 22.9166 10.9251 22.9166 12.6283C22.9166 15.8876 22.9166 17.5173 22.3003 18.7699C21.7155 19.9585 20.7539 20.9201 19.5653 21.5049C18.3126 22.1212 16.683 22.1212 13.4237 22.1212H10.9094C7.65009 22.1212 6.02045 22.1212 4.76779 21.5049C3.57921 20.9201 2.61756 19.9585 2.0328 18.7699C1.4165 17.5173 1.4165 15.8876 1.4165 12.6283ZM8.87268 15.0601C8.48268 15.0601 8.16653 15.3763 8.16653 15.7663C8.16653 16.1563 8.48268 16.4724 8.87268 16.4724H15.4604C15.8504 16.4724 16.1666 16.1563 16.1666 15.7663C16.1666 15.3763 15.8504 15.0601 15.4604 15.0601H8.87268Z" fill="black"/>
</g>
<defs>
<clipPath id="clip0_380_16780">
<rect width="24.0001" height="22.5969" fill="white" transform="translate(0.166504 0.701538)"/>
</clipPath>
</defs>
</svg>
