<svg width="57" height="8" viewBox="0 0 57 8" fill="none" xmlns="http://www.w3.org/2000/svg">
<path d="M0.5 4C0.5 1.79086 2.29086 0 4.5 0C6.70914 0 8.5 1.79086 8.5 4C8.5 6.20914 6.70914 8 4.5 8C2.29086 8 0.5 6.20914 0.5 4Z" fill="#12A232"/>
<path d="M16.5 4C16.5 1.79086 18.2909 0 20.5 0C22.7091 0 24.5 1.79086 24.5 4C24.5 6.20914 22.7091 8 20.5 8C18.2909 8 16.5 6.20914 16.5 4Z" fill="#E5E5E5"/>
<path d="M32.5 4C32.5 1.79086 34.2909 0 36.5 0C38.7091 0 40.5 1.79086 40.5 4C40.5 6.20914 38.7091 8 36.5 8C34.2909 8 32.5 6.20914 32.5 4Z" fill="#E5E5E5"/>
<path d="M48.5 4C48.5 1.79086 50.2909 0 52.5 0C54.7091 0 56.5 1.79086 56.5 4C56.5 6.20914 54.7091 8 52.5 8C50.2909 8 48.5 6.20914 48.5 4Z" fill="#E5E5E5"/>
</svg>
