<svg width="16" height="16" viewBox="0 0 16 16" fill="none" xmlns="http://www.w3.org/2000/svg">
<path d="M3.00016 6.33334C2.0835 6.33334 1.3335 7.08334 1.3335 8.00001C1.3335 8.91668 2.0835 9.66668 3.00016 9.66668C3.91683 9.66668 4.66683 8.91668 4.66683 8.00001C4.66683 7.08334 3.91683 6.33334 3.00016 6.33334Z" fill="black"/>
<path d="M13.0002 6.33334C12.0835 6.33334 11.3335 7.08334 11.3335 8.00001C11.3335 8.91668 12.0835 9.66668 13.0002 9.66668C13.9168 9.66668 14.6668 8.91668 14.6668 8.00001C14.6668 7.08334 13.9168 6.33334 13.0002 6.33334Z" fill="black"/>
<path d="M6.3335 8.00001C6.3335 7.08334 7.0835 6.33334 8.00016 6.33334C8.91683 6.33334 9.66683 7.08334 9.66683 8.00001C9.66683 8.91668 8.91683 9.66668 8.00016 9.66668C7.0835 9.66668 6.3335 8.91668 6.3335 8.00001Z" fill="black"/>
</svg>
