<svg width="25" height="24" viewBox="0 0 25 24" fill="none" xmlns="http://www.w3.org/2000/svg">
<path d="M14.8331 18.4023C14.833 16.4265 13.1318 14.8248 11.0332 14.8247H6.63283C4.5343 14.8248 2.83312 16.4265 2.83301 18.4023C2.83301 19.5463 3.81819 20.4739 5.03322 20.4739H12.6329C13.8479 20.4739 14.8331 19.5463 14.8331 18.4023ZM22.8331 18.4023C22.833 16.4265 21.1318 14.8248 19.0333 14.8247H17.8331C17.2808 14.8247 16.8331 14.4031 16.8331 13.8831C16.8331 13.3631 17.2808 12.9416 17.8331 12.9416H19.0333C22.2364 12.9417 24.833 15.3865 24.8331 18.4023C24.8331 20.5863 22.9525 22.357 20.6329 22.357H17.8331C17.2808 22.357 16.8331 21.9354 16.8331 21.4154C16.8331 20.8954 17.2808 20.4739 17.8331 20.4739H20.6329C21.8479 20.4739 22.8331 19.5463 22.8331 18.4023ZM11.833 6.35082C11.833 4.79083 10.4899 3.52621 8.83304 3.52621C7.17618 3.52621 5.83302 4.79083 5.83302 6.35082C5.83302 7.91081 7.17618 9.17544 8.83304 9.17544C10.4899 9.17544 11.833 7.91081 11.833 6.35082ZM18.8331 6.35082C18.8331 4.79083 17.4899 3.52621 15.8331 3.52621C15.2808 3.52621 14.8331 3.10466 14.8331 2.58467C14.8331 2.06467 15.2808 1.64313 15.8331 1.64313C18.5945 1.64313 20.8331 3.75083 20.8331 6.35082C20.8331 8.95081 18.5945 11.0585 15.8331 11.0585C15.2808 11.0585 14.8331 10.637 14.8331 10.117C14.8331 9.59698 15.2808 9.17544 15.8331 9.17544C17.4899 9.17544 18.8331 7.91081 18.8331 6.35082ZM16.8331 18.4023C16.8331 20.5863 14.9525 22.357 12.6329 22.357H5.03322C2.71361 22.357 0.833008 20.5863 0.833008 18.4023C0.833113 15.3865 3.42972 12.9417 6.63283 12.9416H11.0332C14.2363 12.9417 16.833 15.3865 16.8331 18.4023ZM13.8331 6.35082C13.8331 8.95081 11.5945 11.0585 8.83304 11.0585C6.0716 11.0585 3.83302 8.95081 3.83302 6.35082C3.83302 3.75083 6.0716 1.64313 8.83304 1.64313C11.5945 1.64313 13.8331 3.75083 13.8331 6.35082Z" fill="#B2B2B2"/>
</svg>
