<svg width="25" height="24" viewBox="0 0 25 24" fill="none" xmlns="http://www.w3.org/2000/svg">
<path d="M21.5001 10.1169C21.5001 8.78335 21.4996 7.83969 21.4356 7.10197C21.3804 6.46614 21.282 6.04656 21.1319 5.71816L21.0645 5.58208C20.729 4.96211 20.2184 4.44333 19.5919 4.08151L19.3165 3.93623C18.9462 3.75858 18.4741 3.64621 17.7022 3.58683C16.9187 3.52658 15.9164 3.52614 14.5 3.52614H10.5C9.08366 3.52614 8.0814 3.52658 7.29787 3.58683C6.52595 3.64621 6.05392 3.75858 5.68361 3.93623C4.9311 4.29728 4.31903 4.87357 3.93556 5.58208C3.74687 5.93075 3.62753 6.37518 3.56446 7.10197C3.50047 7.83969 3.50001 8.78335 3.50001 10.1169V13.8831C3.50001 15.2166 3.50047 16.1603 3.56446 16.898C3.62753 17.6248 3.74687 18.0692 3.93556 18.4179L4.08985 18.6772C4.47414 19.2671 5.02514 19.7478 5.68361 20.0638L5.82814 20.1272C6.17693 20.2685 6.62256 20.3612 7.29787 20.4132C8.0814 20.4734 9.08366 20.4738 10.5 20.4738H14.5C15.9164 20.4738 16.9187 20.4734 17.7022 20.4132C18.4741 20.3538 18.9462 20.2414 19.3165 20.0638L19.5919 19.9185C20.2184 19.5567 20.729 19.0379 21.0645 18.4179L21.1319 18.2818C21.282 17.9534 21.3804 17.5338 21.4356 16.898C21.4996 16.1603 21.5001 15.2166 21.5001 13.8831V10.1169ZM15.293 12.2758C15.6591 11.9311 16.2381 11.9099 16.6309 12.2115L16.7071 12.2758L19.2071 14.6297C19.5976 14.9974 19.5976 15.5934 19.2071 15.9611L16.7071 18.3149C16.3166 18.6826 15.6835 18.6826 15.293 18.3149C14.9025 17.9472 14.9025 17.3512 15.293 16.9835L16.086 16.2369H10.5C9.94774 16.2369 9.50003 15.8154 9.50003 15.2954C9.50003 14.7754 9.94774 14.3538 10.5 14.3538H16.086L15.293 13.6072L15.2247 13.5355C14.9043 13.1657 14.9269 12.6205 15.293 12.2758ZM8.29299 5.68506C8.68351 5.31737 9.31653 5.31738 9.70706 5.68506C10.0976 6.05275 10.0976 6.64876 9.70706 7.01646L8.91409 7.76307H14.5C15.0523 7.76307 15.5 8.18464 15.5 8.70461C15.5 9.22461 15.0523 9.64615 14.5 9.64615H8.91409L9.70706 10.3928L9.77542 10.4645C10.0958 10.8343 10.0732 11.3794 9.70706 11.7242C9.34093 12.0689 8.76194 12.0902 8.36916 11.7885L8.29299 11.7242L5.79298 9.37031C5.4025 9.00261 5.40248 8.40659 5.79298 8.03891L8.29299 5.68506ZM23.5001 13.8831C23.5001 15.1857 23.501 16.2193 23.4288 17.0516C23.3647 17.7895 23.2398 18.4326 22.9708 19.0229L22.8458 19.2721C22.3065 20.2685 21.4667 21.0909 20.4337 21.6361L20.2237 21.7409C19.5245 22.0763 18.7608 22.2209 17.8653 22.2898C16.9814 22.3578 15.8836 22.3569 14.5 22.3569H10.5C9.1165 22.3569 8.01868 22.3578 7.13478 22.2898C6.35104 22.2295 5.66795 22.1119 5.04103 21.8586L4.77638 21.7409C3.71806 21.2332 2.84459 20.4424 2.26563 19.4698L2.1543 19.2721C1.79805 18.6138 1.64446 17.8948 1.57129 17.0516C1.49909 16.2193 1.5 15.1857 1.5 13.8831V10.1169C1.5 8.81427 1.49909 7.78064 1.57129 6.94842C1.64446 6.10522 1.79805 5.38623 2.1543 4.72789L2.26563 4.53021C2.84459 3.55754 3.71806 2.76683 4.77638 2.25911L5.04103 2.14142C5.66795 1.8881 6.35104 1.77048 7.13478 1.71019C8.01868 1.64221 9.1165 1.64307 10.5 1.64307H14.5C15.8836 1.64307 16.9814 1.64221 17.8653 1.71019C18.7608 1.77908 19.5245 1.9237 20.2237 2.25911L20.4337 2.36393C21.4667 2.90905 22.3065 3.73145 22.8458 4.72789L22.9708 4.97707C23.2398 5.56734 23.3647 6.21049 23.4288 6.94842C23.501 7.78064 23.5001 8.81427 23.5001 10.1169V13.8831Z" fill="#B2B2B2"/>
</svg>
